<?xml version="1.0" standalone="no"?>
<!DOCTYPE svg PUBLIC "-//W3C//DTD SVG 20010904//EN"
 "http://www.w3.org/TR/2001/REC-SVG-20010904/DTD/svg10.dtd">
<svg version="1.0" xmlns="http://www.w3.org/2000/svg"
 width="500.000000pt" height="500.000000pt" viewBox="0 0 500.000000 500.000000"
 preserveAspectRatio="xMidYMid meet">

<g transform="translate(0.000000,500.000000) scale(0.100000,-0.100000)"
fill="#BCD89A" stroke="none">
<path d="M3908 4421 c-92 -96 -135 -151 -119 -151 5 0 -1 -26 -14 -58 -37 -90
-70 -224 -106 -427 -6 -33 -14 -78 -19 -100 -9 -39 -18 -87 -40 -230 -25 -154
-96 -445 -109 -445 -3 0 -7 -11 -7 -24 -1 -13 -23 -77 -48 -142 -47 -118 -56
-139 -84 -181 -8 -13 -10 -23 -6 -23 15 1 60 81 111 200 106 244 147 412 219
893 8 53 51 99 157 169 107 70 160 87 188 62 10 -9 19 -26 19 -37 0 -43 -101
-209 -173 -284 -45 -47 -41 -54 11 -23 83 51 217 76 242 45 43 -52 -70 -229
-205 -318 -33 -22 -49 -36 -35 -32 47 14 200 18 230 5 98 -41 10 -187 -164
-271 -44 -22 -87 -40 -95 -40 -9 -1 11 -5 43 -10 33 -5 80 -19 105 -32 84 -44
89 -105 13 -164 -53 -40 -132 -57 -239 -50 -46 2 -83 3 -83 1 0 -2 33 -13 72
-25 82 -24 148 -78 148 -121 0 -78 -171 -124 -292 -78 -59 22 -71 21 -32 -5
40 -26 100 -90 106 -112 20 -76 -82 -106 -182 -54 -52 27 -53 27 -35 -9 69
-134 -95 -158 -177 -26 -14 23 -31 59 -38 81 -7 22 -15 35 -17 28 -6 -18 24
-111 47 -143 12 -17 18 -35 14 -41 -4 -8 -3 -9 5 -5 14 9 39 -15 33 -32 -2 -6
1 -12 7 -12 6 0 11 6 11 13 0 8 3 8 8 1 4 -5 25 -11 47 -13 21 -1 41 -4 44 -6
2 -3 10 3 18 13 13 16 14 15 8 -5 -5 -18 -2 -23 12 -23 10 0 14 4 8 8 -14 10
-12 36 4 55 8 11 10 27 6 48 -6 26 -5 31 8 26 9 -3 32 -9 51 -13 26 -4 36 -11
36 -24 0 -10 -5 -21 -10 -23 -6 -3 -5 -4 2 -3 7 1 14 12 16 24 2 15 13 23 38
28 41 8 77 49 71 81 -2 12 0 20 4 17 23 -14 5 18 -26 48 l-35 33 65 -3 c36 -2
79 1 95 7 l30 10 -15 -36 c-15 -36 -15 -36 5 -18 11 10 20 28 20 39 0 12 13
29 30 41 57 38 44 134 -24 176 l-31 19 41 0 c47 0 127 36 165 74 80 80 55 160
-64 204 l-50 19 54 25 c101 46 189 147 189 216 0 68 -87 115 -184 99 -31 -5
-31 -4 34 61 65 66 113 145 126 208 5 25 1 36 -18 54 -20 19 -31 21 -79 17
-31 -3 -77 -14 -102 -25 l-46 -20 44 56 c59 77 105 172 105 215 0 68 -55 90
-140 57 -66 -26 -134 -72 -183 -125 l-38 -40 7 40 c3 22 17 85 31 140 14 55
29 117 34 138 13 55 59 167 83 202 11 17 46 63 78 103 32 39 56 72 54 72 -2 0
-42 -40 -88 -89z"/>
<path d="M3980 4233 c-72 -77 -129 -150 -100 -128 31 23 159 175 148 175 -2 0
-24 -21 -48 -47z"/>
<path d="M3716 4178 l-18 -33 21 25 c18 22 26 40 18 40 -1 0 -11 -15 -21 -32z"/>
<path d="M4174 4182 c-12 -9 -38 -30 -58 -46 -20 -15 -36 -32 -36 -38 0 -5 15
5 33 22 17 17 44 38 60 48 15 9 27 20 27 24 0 11 -2 10 -26 -10z"/>
<path d="M3831 4057 c-13 -21 -12 -21 5 -5 10 10 16 20 13 22 -3 3 -11 -5 -18
-17z"/>
<path d="M3634 4024 c-4 -10 -15 -39 -26 -64 -20 -47 -68 -231 -87 -335 -27
-146 -67 -338 -80 -385 -70 -242 -85 -278 -108 -258 -16 13 -17 38 -2 38 5 0
7 5 4 10 -4 6 -11 8 -16 4 -5 -3 -9 -2 -8 3 3 20 -2 34 -11 28 -5 -3 -7 0 -4
8 3 8 -3 20 -12 28 -14 11 -16 11 -10 1 7 -11 4 -12 -10 -4 -26 14 -56 51 -49
61 2 5 -8 11 -23 13 -35 5 -38 -13 -8 -45 37 -41 55 -74 49 -95 -4 -17 0 -21
23 -24 26 -3 27 -4 11 -20 -9 -9 -18 -28 -19 -42 -4 -41 -32 -38 -79 10 -47
48 -79 62 -37 17 31 -34 58 -74 58 -86 0 -5 -19 9 -42 31 -42 41 -68 50 -33
12 10 -11 14 -20 9 -20 -5 0 -1 -5 9 -11 18 -10 18 -12 1 -30 -16 -18 -16 -19
13 -19 22 0 36 -7 48 -26 9 -15 12 -23 6 -20 -6 4 -11 2 -11 -3 0 -6 5 -11 10
-11 6 0 10 -3 10 -7 0 -5 -11 -8 -24 -8 -13 0 -22 3 -20 7 8 13 -8 58 -21 58
-15 0 -13 -26 7 -82 16 -47 40 -53 53 -13 6 16 18 31 28 33 24 5 22 -25 -3
-38 -28 -15 -26 -33 3 -24 l22 6 -24 -26 c-22 -24 -21 -31 3 -27 4 1 -1 -14
-13 -32 -12 -19 -21 -47 -21 -63 0 -62 153 286 200 456 10 36 25 88 34 115 16
54 65 279 116 540 17 88 35 169 40 180 29 69 61 167 56 172 -3 3 -8 -3 -12
-13z m-369 -994 c3 -5 1 -10 -4 -10 -6 0 -11 5 -11 10 0 6 2 10 4 10 3 0 8 -4
11 -10z m35 -49 c0 -6 -4 -13 -10 -16 -17 -11 -11 -24 15 -31 29 -7 34 -34 6
-34 -30 0 -51 -11 -51 -27 0 -10 6 -12 20 -8 19 6 28 -9 12 -19 -11 -7 -72 31
-72 45 0 8 4 8 15 -1 12 -10 15 -10 15 4 0 9 3 15 8 15 4 -1 16 -1 27 0 19 2
19 3 -2 13 -27 13 -30 33 -7 42 8 3 12 10 9 16 -3 5 -1 10 4 10 6 0 11 -4 11
-9z m30 -31 c0 -5 -4 -10 -10 -10 -5 0 -10 5 -10 10 0 6 5 10 10 10 6 0 10 -4
10 -10z m-140 -194 c0 -8 -4 -18 -10 -21 -5 -3 -10 3 -10 14 0 12 5 21 10 21
6 0 10 -6 10 -14z"/>
<path d="M4292 3836 c-134 -91 -155 -108 -102 -81 87 44 255 166 229 165 -2 0
-59 -38 -127 -84z"/>
<path d="M2358 3683 c6 -2 12 -12 12 -20 0 -19 -50 -107 -102 -182 -44 -63
-49 -81 -13 -45 14 14 25 28 25 32 0 4 19 34 41 67 70 101 85 156 42 154 -11
0 -13 -3 -5 -6z"/>
<path d="M2163 3638 c-6 -24 -13 -52 -17 -63 -5 -12 -1 -10 7 5 15 25 33 100
25 100 -3 0 -9 -19 -15 -42z"/>
<path d="M4605 3604 c-57 -51 -107 -84 -215 -144 -52 -28 -86 -49 -75 -47 25
7 258 97 264 103 3 2 -11 2 -30 -1 -33 -6 -34 -6 -12 10 37 28 123 116 112
115 -2 -1 -22 -17 -44 -36z"/>
<path d="M1971 3545 c1 -19 18 -51 18 -35 0 8 -4 22 -9 30 -5 8 -9 11 -9 5z"/>
<path d="M2112 3505 c-26 -54 -27 -62 -7 -45 8 7 15 19 15 27 0 8 4 12 8 9 4
-2 9 9 10 25 1 16 1 29 -1 29 -2 0 -13 -20 -25 -45z"/>
<path d="M2025 3500 c-9 -17 -20 -28 -25 -25 -12 7 -13 -25 -1 -43 5 -9 14 5
28 42 23 62 22 72 -2 26z"/>
<path d="M2557 3440 c-54 -16 -195 -154 -211 -207 -5 -14 27 12 81 65 94 94
139 129 151 117 4 -4 -22 -33 -57 -65 l-63 -58 82 29 c82 29 123 37 105 20 -6
-5 -38 -18 -73 -30 -34 -12 -71 -27 -82 -33 -23 -14 -26 -34 -7 -41 6 -2 -5
-8 -27 -12 -31 -6 -35 -10 -22 -17 40 -22 154 18 225 79 68 58 37 104 -50 74
-31 -11 -38 -1 -13 19 16 14 16 62 -1 66 -5 1 -22 -2 -38 -6z"/>
<path d="M3080 3252 c0 -5 7 -9 15 -9 8 0 15 4 15 9 0 4 -7 8 -15 8 -8 0 -15
-4 -15 -8z"/>
<path d="M3115 3220 c-3 -5 -1 -10 4 -10 6 0 11 5 11 10 0 6 -2 10 -4 10 -3 0
-8 -4 -11 -10z"/>
<path d="M3155 3210 c3 -5 8 -10 11 -10 2 0 4 5 4 10 0 6 -5 10 -11 10 -5 0
-7 -4 -4 -10z"/>
<path d="M4586 3169 c-69 -57 -145 -98 -266 -147 -88 -36 -105 -40 -113 -27
-4 8 -13 15 -19 15 -9 0 -9 -3 0 -12 9 -9 7 -14 -6 -24 -14 -10 -12 -12 14
-10 17 2 35 5 40 8 9 6 70 22 89 23 6 1 28 9 49 19 22 9 50 19 63 22 13 4 23
10 23 15 0 4 24 24 53 43 46 31 139 116 126 116 -2 0 -26 -18 -53 -41z"/>
<path d="M3090 3190 c0 -6 7 -10 15 -10 8 0 15 2 15 4 0 2 -7 6 -15 10 -8 3
-15 1 -15 -4z"/>
<path d="M3120 3135 c0 -8 4 -15 10 -15 5 0 7 7 4 15 -4 8 -8 15 -10 15 -2 0
-4 -7 -4 -15z"/>
<path d="M3108 3074 c5 -39 11 -42 35 -14 21 25 37 26 37 1 0 -13 7 -18 25
-18 14 0 25 3 25 8 0 5 -9 9 -20 9 -14 0 -20 7 -20 21 0 11 -4 17 -10 14 -5
-3 -10 0 -10 7 -1 9 -5 7 -14 -4 -13 -18 -42 -26 -32 -9 3 5 0 11 -7 14 -9 3
-12 -5 -9 -29z"/>
<path d="M1394 3045 c-5 -12 0 -24 15 -36 l22 -18 -43 -8 c-34 -7 -44 -13 -46
-31 -5 -31 49 -52 131 -52 63 0 157 24 157 40 0 34 -119 108 -190 117 -32 5
-41 2 -46 -12z m139 -37 c38 -17 72 -39 77 -47 7 -14 -5 -16 -113 -13 -68 2
-126 8 -132 14 -7 7 25 9 105 4 75 -3 110 -2 100 4 -8 5 -23 10 -33 10 -27 0
-127 48 -127 61 0 15 40 5 123 -33z"/>
<path d="M4660 3030 c0 -5 5 -10 11 -10 5 0 7 5 4 10 -3 6 -8 10 -11 10 -2 0
-4 -4 -4 -10z"/>
<path d="M3190 3015 c0 -8 4 -15 8 -15 5 0 9 7 9 15 0 8 -4 15 -9 15 -4 0 -8
-7 -8 -15z"/>
<path d="M3155 3010 c-19 -8 -19 -9 3 -9 12 -1 22 4 22 9 0 6 -1 10 -2 9 -2 0
-12 -4 -23 -9z"/>
<path d="M2331 2969 c-74 -37 -141 -102 -176 -174 -30 -60 -60 -194 -47 -207
6 -6 11 10 14 40 6 62 55 167 102 219 19 22 64 55 98 74 57 30 71 33 148 34
116 0 180 -26 269 -110 74 -70 108 -128 121 -207 16 -103 -20 -203 -110 -301
-29 -31 -74 -71 -101 -89 -60 -39 -64 -48 -7 -16 73 40 162 131 198 203 74
145 41 339 -76 449 -85 79 -179 116 -294 116 -63 0 -85 -5 -139 -31z"/>
<path d="M3225 2990 c-4 -6 -15 -8 -26 -5 -11 4 -19 2 -19 -5 0 -6 5 -8 10 -5
6 3 10 1 10 -4 0 -6 9 -11 20 -11 13 0 20 7 20 20 0 22 -5 25 -15 10z"/>
<path d="M4300 2899 c0 -5 5 -7 10 -4 6 3 10 8 10 11 0 2 -4 4 -10 4 -5 0 -10
-5 -10 -11z"/>
<path d="M4652 2893 c-61 -61 -155 -118 -174 -107 -6 4 -8 3 -5 -3 7 -11 -34
-33 -63 -33 -10 0 -22 -4 -25 -10 -3 -5 -30 -11 -58 -12 -45 -1 -42 -2 23 -7
73 -6 78 -5 153 33 74 38 146 96 167 137 13 24 5 24 -18 2z"/>
<path d="M570 2856 c0 -2 26 -19 58 -36 56 -32 214 -151 208 -157 -2 -2 -15 1
-30 7 -15 5 -43 10 -61 10 -110 0 -128 -86 -38 -182 27 -28 68 -64 92 -79 32
-20 39 -29 25 -29 -10 0 -44 -18 -74 -39 -39 -27 -57 -46 -61 -67 -8 -42 7
-76 45 -102 18 -13 33 -30 32 -40 0 -9 8 -18 18 -20 14 -3 17 0 13 12 -4 9 -2
16 3 16 6 0 10 -7 10 -15 0 -8 5 -15 11 -15 5 0 7 5 4 10 -3 6 4 10 17 10 l23
0 -22 -18 c-24 -19 -46 -81 -23 -67 9 5 11 4 6 -4 -4 -6 -11 -9 -16 -6 -5 3
-11 1 -15 -5 -15 -24 -22 -7 -8 20 8 17 13 36 10 43 -5 15 -42 -53 -38 -72 1
-7 -2 -10 -8 -7 -5 4 -13 1 -16 -5 -4 -5 -14 -8 -22 -5 -8 3 -11 1 -8 -4 10
-16 -12 -12 -29 6 -14 14 -18 13 -41 -3 -24 -18 -34 -43 -15 -43 5 0 7 -6 4
-14 -3 -8 3 -15 18 -18 29 -5 48 0 48 14 0 5 -9 6 -20 3 -16 -5 -20 -2 -20 15
0 14 -4 19 -12 14 -10 -5 -10 -4 -2 5 12 13 67 4 59 -9 -3 -5 -1 -11 5 -15 6
-3 13 1 16 9 3 9 13 16 22 16 13 0 13 -2 -3 -13 -12 -10 -14 -16 -7 -21 7 -4
12 -5 12 -1 0 3 9 1 19 -4 15 -8 20 -7 25 5 8 22 8 22 -11 27 -17 4 -17 5 0 6
9 0 17 6 17 12 0 8 5 7 16 -2 13 -10 17 -10 24 0 4 8 13 10 19 7 12 -8 15 -37
4 -34 -5 1 -23 -6 -42 -16 -34 -18 -34 -18 -11 -29 23 -12 37 -47 19 -47 -5 0
-9 9 -9 20 0 19 -1 19 -25 -2 -14 -12 -22 -24 -19 -27 4 -3 9 -1 11 6 8 21 41
-7 35 -29 -4 -17 -1 -19 32 -13 24 5 36 3 36 -4 0 -6 -11 -11 -25 -11 -23 0
-32 -17 -26 -52 1 -10 -11 -10 -28 1 -7 5 -11 13 -8 18 7 11 -29 10 -40 -1 -4
-4 -8 -15 -8 -23 0 -9 -6 -18 -12 -20 -7 -3 -13 2 -13 11 0 21 -19 31 -33 17
-9 -9 -8 -14 3 -21 8 -5 11 -10 5 -10 -5 0 -4 -4 4 -9 15 -10 24 -41 12 -41
-4 0 -12 5 -18 11 -7 7 -13 7 -17 0 -4 -5 3 -15 15 -21 17 -10 25 -8 44 10 12
12 21 29 19 38 -6 23 11 46 25 37 7 -4 8 -11 3 -18 -12 -17 -13 -57 0 -57 6 0
8 8 6 18 -3 11 0 19 8 19 21 0 17 -24 -7 -48 -17 -17 -19 -23 -8 -30 17 -10
23 -11 43 -3 9 3 14 10 11 14 -3 5 3 8 12 8 20 -2 93 31 93 41 0 4 -5 12 -12
19 -9 9 -9 12 0 12 6 0 15 -7 20 -16 5 -9 15 -14 21 -10 6 4 9 12 5 17 -3 6 4
7 20 3 28 -7 34 4 14 25 -11 10 -10 11 4 6 9 -4 19 -16 21 -28 l4 -22 8 22 c4
13 11 20 16 17 5 -3 9 -1 9 4 0 5 11 7 25 4 27 -5 35 -22 10 -22 -18 0 -20
-17 -2 -23 6 -2 19 5 29 15 11 13 19 15 23 8 8 -13 -12 -40 -31 -40 -8 0 -14
-5 -14 -11 0 -6 6 -9 14 -6 8 3 17 -1 20 -8 3 -9 12 -12 23 -8 16 6 17 5 3
-12 -14 -17 -13 -18 5 -11 14 5 17 4 9 -4 -14 -14 -3 -82 14 -88 6 -2 12 1 12
8 0 6 5 8 10 5 7 -4 9 2 5 18 -6 22 9 47 20 35 11 -10 -9 -78 -22 -78 -8 0
-11 -5 -8 -10 4 -6 11 -8 16 -4 6 3 17 -2 25 -12 15 -18 15 -18 9 1 -10 28
-11 44 -4 42 4 -1 16 9 27 23 l21 25 -6 -24 c-5 -20 -3 -23 12 -18 14 6 16 3
12 -13 -3 -14 -1 -20 6 -17 7 2 14 17 17 33 4 19 8 25 13 16 5 -7 13 -10 18
-7 5 4 9 1 9 -4 0 -6 9 -11 19 -11 11 0 23 -4 26 -10 4 -6 -7 -10 -24 -10 -17
0 -31 -4 -31 -10 0 -5 9 -10 20 -10 13 0 18 -5 14 -15 -4 -8 -2 -15 4 -15 5 0
13 -7 16 -16 5 -12 1 -14 -17 -9 -18 6 -20 5 -9 -6 6 -7 12 -20 12 -28 0 -11
-4 -10 -14 5 -8 11 -18 15 -23 10 -4 -5 -2 -11 5 -13 6 -3 12 -14 13 -26 0
-12 3 -16 6 -9 2 6 12 12 20 12 9 0 13 6 10 15 -4 8 -3 17 2 19 4 3 7 22 6 43
-2 55 13 93 33 86 14 -5 15 -3 5 8 -20 21 -15 34 5 16 21 -19 34 -13 25 11 -5
10 -3 13 6 8 7 -5 10 -14 7 -21 -2 -7 1 -18 7 -24 8 -8 15 -5 25 11 l13 23 -7
-24 c-4 -15 -2 -21 4 -17 6 3 13 2 17 -4 6 -10 -9 -15 -30 -10 -5 1 -17 2 -27
3 -9 1 -14 5 -12 9 3 4 1 8 -3 8 -5 0 -14 -9 -21 -20 -9 -15 -9 -20 -1 -20 7
0 5 -8 -6 -20 -10 -11 -22 -17 -26 -14 -15 9 -10 -13 6 -26 13 -11 18 -10 29
5 9 13 15 15 20 7 4 -7 2 -12 -4 -12 -6 0 -8 -5 -5 -10 4 -6 11 -7 17 -4 7 4
8 2 4 -5 -9 -14 2 -51 15 -51 11 0 7 49 -6 85 -7 16 -6 18 6 8 18 -18 28 -16
25 5 -2 10 -13 18 -29 20 -15 2 -27 8 -27 13 0 6 8 8 18 5 9 -2 27 -7 40 -11
25 -7 29 -37 7 -55 -17 -14 -21 -35 -4 -24 6 3 15 0 20 -7 13 -21 11 -29 -7
-29 -8 0 -12 -5 -8 -11 4 -7 10 -7 16 -1 11 11 48 4 48 -9 0 -5 -7 -9 -15 -9
-8 0 -15 -4 -15 -10 0 -13 47 -13 52 1 2 5 11 7 21 3 12 -4 15 -10 7 -19 -5
-6 -7 -15 -4 -18 4 -3 -10 -3 -30 0 -42 7 -48 -9 -12 -32 18 -12 30 -13 50 -5
15 5 25 6 22 1 -3 -5 1 -11 9 -14 11 -5 12 -1 5 18 -7 18 -6 23 4 19 8 -3 12
3 10 18 -4 34 -4 34 -14 18 -5 -8 -12 -11 -16 -7 -4 3 -2 13 4 20 9 10 9 16 0
25 -8 8 -3 10 18 8 16 -2 28 -9 26 -16 -1 -7 2 -18 8 -24 5 -7 7 -16 3 -19 -3
-4 3 -7 14 -7 14 0 24 10 32 30 11 34 22 41 14 10 -4 -16 2 -23 31 -35 39 -17
46 -31 19 -38 -10 -3 -2 -4 17 -2 29 2 36 6 38 28 2 14 11 31 20 39 11 9 14
10 8 1 -4 -8 -2 -13 4 -13 7 0 9 -8 5 -20 -7 -21 9 -28 20 -10 4 6 11 8 16 5
5 -4 9 -1 9 4 0 6 -7 11 -15 11 -8 0 -15 5 -15 10 0 6 7 10 15 10 16 0 24 -14
29 -46 2 -10 9 -20 16 -22 9 -3 11 1 7 11 -4 10 1 18 13 22 10 3 20 14 22 23
2 12 17 -1 47 -42 143 -193 361 -354 574 -425 97 -33 210 -51 313 -51 l94 0 0
-50 c0 -59 18 -100 54 -124 24 -15 56 -22 56 -11 0 3 -11 17 -25 31 -36 36
-57 81 -53 117 l3 32 21 -46 c26 -55 87 -119 114 -119 26 0 25 12 -1 36 -27
24 -82 104 -72 104 4 0 35 -18 68 -40 33 -22 63 -39 68 -37 21 7 6 25 -56 67
-36 25 -69 48 -72 51 -3 3 23 13 57 22 35 8 71 18 80 22 13 5 24 -9 53 -67 67
-134 102 -183 207 -293 73 -76 156 -132 203 -137 26 -3 30 1 33 24 2 15 -6 48
-17 74 -12 26 -19 49 -17 51 2 3 26 -12 54 -31 87 -63 199 -109 267 -110 l60
-1 -1 36 c-1 19 -13 61 -27 92 -14 31 -24 57 -22 57 2 0 21 -10 42 -22 21 -13
60 -31 88 -40 54 -20 120 -24 110 -8 -4 6 -10 8 -15 5 -7 -5 -51 7 -95 25 -11
4 -29 11 -40 15 -16 5 -17 8 -5 16 11 7 8 8 -10 4 -19 -4 -39 5 -85 40 -33 25
-60 51 -61 58 -2 28 -5 31 -13 18 -5 -7 -14 -10 -20 -7 -6 4 -9 12 -6 17 4 5
-1 9 -11 9 -11 0 -15 6 -11 20 6 23 -17 47 -29 29 -4 -8 -3 -9 4 -5 7 4 12 2
12 -3 0 -17 -14 -13 -33 9 -9 11 -13 20 -9 20 5 0 9 7 9 15 0 8 -4 15 -9 15
-4 0 -8 -4 -8 -10 0 -5 -4 -10 -9 -10 -14 0 -71 63 -64 70 3 3 8 -1 10 -7 6
-17 20 -16 26 1 4 10 1 13 -7 10 -7 -3 -20 2 -29 10 -8 8 -17 13 -19 10 -3 -2
-13 5 -23 16 -10 11 -16 20 -14 21 37 7 63 2 67 -13 4 -16 6 -16 28 5 28 26
29 33 10 40 -10 4 -13 1 -9 -9 3 -8 -1 -14 -10 -14 -10 0 -14 7 -11 23 4 20 4
20 -5 2 -8 -19 -9 -19 -16 -2 -10 25 24 50 44 34 12 -9 13 -9 7 1 -11 19 9 14
27 -6 13 -14 14 -21 5 -30 -8 -8 -9 -12 -1 -12 6 0 13 6 16 13 3 9 10 7 25 -7
20 -17 20 -21 7 -53 -18 -44 -18 -44 0 -37 8 4 21 1 28 -4 10 -8 13 -5 14 16
1 15 -1 21 -4 15 -8 -21 -18 -15 -21 12 -1 14 1 25 4 25 15 0 69 -54 66 -67
-2 -7 2 -13 8 -13 5 0 10 5 10 11 0 5 5 7 10 4 6 -4 7 -11 4 -17 -4 -7 -2 -8
4 -4 14 8 124 -63 116 -75 -3 -5 2 -6 10 -3 22 9 116 -61 114 -85 -1 -17 16
-50 28 -55 10 -4 9 5 -6 34 -28 54 -26 61 13 45 17 -7 60 -20 95 -29 72 -19
102 -10 102 29 0 41 -38 127 -80 182 -22 29 -36 53 -32 53 5 0 33 -5 64 -10
75 -14 113 -1 103 37 -15 63 -116 176 -230 258 -53 38 -210 123 -239 130 -6 1
-33 12 -61 25 -27 13 -72 31 -100 41 l-49 17 -12 79 c-14 88 -21 115 -55 193
-28 66 -98 177 -128 204 -29 26 -27 33 17 39 20 4 48 14 61 23 20 14 22 23 18
55 l-5 39 52 0 c106 0 198 74 180 145 -6 24 -5 25 49 25 59 0 121 22 183 64
19 13 31 27 26 30 -6 3 -12 3 -14 -1 -1 -5 -18 -16 -36 -25 -28 -15 -34 -16
-38 -3 -7 18 -40 20 -50 4 -4 -8 0 -9 15 -4 15 5 21 2 21 -9 0 -19 -13 -20
-41 -6 -15 8 -19 7 -19 -5 0 -17 -4 -18 -77 -19 -29 -1 -53 3 -53 8 0 4 -11 6
-25 4 -27 -6 -32 1 -13 20 9 9 8 12 -5 12 -9 0 -16 -3 -16 -7 5 -30 -2 -35
-21 -18 -15 14 -20 15 -20 4 0 -8 -3 -10 -8 -4 -4 6 -14 10 -22 10 -8 0 -17
11 -20 25 -6 24 -7 24 -14 -7 -4 -18 -12 -33 -16 -33 -5 0 -7 6 -5 13 3 6 -4
18 -16 25 -19 12 -20 12 -14 -10 9 -28 25 -40 44 -33 16 6 43 -14 35 -26 -7
-12 9 -12 21 0 12 11 116 -15 127 -32 8 -13 1 -45 -15 -65 -25 -32 -89 -53
-164 -55 -67 -2 -77 0 -94 21 -10 13 -23 21 -29 17 -5 -3 -10 -2 -10 3 0 6 7
12 15 16 8 3 15 10 15 16 0 7 -6 8 -19 1 -10 -6 -21 -7 -25 -4 -3 3 -6 -5 -6
-19 0 -14 7 -31 15 -38 8 -7 15 -19 15 -27 0 -8 4 -12 9 -9 9 6 67 -20 76 -34
3 -4 -3 -18 -13 -30 -30 -37 -146 -46 -155 -12 -4 15 -5 15 -6 0 -1 -22 -3
-22 -44 -4 -39 16 -63 42 -72 78 -6 25 -4 27 29 33 20 4 36 12 36 17 0 6 -7 8
-15 4 -9 -3 -15 0 -15 9 0 7 8 16 18 18 9 3 3 5 -15 6 -17 0 -35 -4 -38 -9 -4
-6 -11 -8 -16 -5 -5 4 -9 2 -9 -4 0 -5 5 -13 10 -16 5 -3 10 -2 10 4 0 6 7 8
15 5 23 -9 18 -24 -9 -24 -20 0 -23 -4 -21 -32 5 -52 8 -60 39 -90 35 -32 44
-66 18 -64 -9 0 -16 -5 -14 -11 1 -7 -7 -13 -18 -13 -12 0 -20 7 -20 17 0 12
-3 14 -11 6 -14 -14 -58 -2 -98 26 -29 21 -54 13 -29 -9 7 -6 24 -19 37 -30
13 -11 22 -22 19 -25 -4 -4 -113 28 -172 51 -16 6 -17 4 -11 -17 10 -32 15
-36 24 -21 5 9 19 1 48 -26 23 -20 46 -36 52 -34 6 2 11 -1 11 -8 0 -13 65
-53 94 -57 11 -2 24 -7 30 -12 6 -5 27 -11 46 -13 19 -3 44 -9 54 -13 16 -7
18 -5 14 13 -4 12 -2 22 3 22 5 0 9 -4 9 -10 0 -5 7 -10 15 -10 8 0 15 -4 15
-10 0 -5 7 -10 15 -10 18 0 20 17 3 22 -7 3 -2 7 10 10 16 5 22 2 22 -10 1
-15 2 -15 14 1 10 13 15 15 19 5 8 -22 29 6 25 33 -2 15 -9 24 -20 23 -11 -1
-15 5 -12 19 2 12 -3 31 -11 44 -9 13 -13 23 -11 23 11 0 104 -149 131 -210
60 -137 72 -296 26 -352 -6 -7 -33 -40 -59 -74 -85 -104 -220 -213 -342 -274
-315 -158 -626 -172 -918 -39 -125 56 -259 153 -360 259 -43 45 -185 251 -198
286 -7 19 -7 19 14 0 12 -10 38 -19 59 -20 31 -1 39 3 51 27 l13 28 21 -27
c21 -26 73 -54 102 -54 23 0 63 42 70 73 5 19 3 26 -4 22 -5 -3 -10 -15 -10
-25 0 -26 -44 -54 -73 -46 -36 9 -74 43 -112 99 -38 56 -43 56 -20 1 11 -27
12 -40 3 -59 -26 -58 -114 -4 -183 111 l-33 54 2 -72 c1 -67 -1 -73 -20 -76
-29 -4 -83 52 -117 121 -15 31 -27 61 -27 67 0 6 -4 8 -10 5 -5 -3 -10 -16
-10 -28 0 -27 -26 -67 -44 -67 -20 0 -56 75 -69 146 l-13 66 -27 -41 c-56 -84
-98 -31 -107 134 -4 87 -6 95 -13 56 -10 -54 -34 -103 -50 -99 -7 2 -21 22
-32 44 -27 55 -25 152 4 220 21 48 21 54 8 81 -8 15 -21 56 -27 90 l-12 61
-157 104 c-277 182 -367 238 -461 285 -30 15 -56 31 -58 35 -2 4 -11 8 -21 8
-9 0 -34 9 -56 20 -36 19 -65 26 -65 16z m539 -307 c51 -32 97 -59 102 -59 5
0 9 -4 9 -10 0 -5 6 -10 14 -10 8 0 16 -3 18 -8 2 -4 31 -25 65 -47 47 -30 63
-47 67 -69 4 -16 2 -34 -4 -40 -7 -7 -10 -6 -10 2 0 7 -5 11 -12 10 -7 -2 -12
2 -13 9 0 6 -4 15 -9 20 -5 5 -6 3 -2 -4 10 -17 1 -16 -40 3 -19 9 -31 21 -28
26 4 6 -2 8 -15 3 -18 -5 -24 -2 -28 14 -3 12 -12 21 -19 21 -8 0 -14 7 -14
15 0 8 -6 12 -14 9 -17 -7 -76 34 -76 53 0 7 -6 13 -14 13 -20 0 -48 29 -40
42 4 7 2 8 -5 4 -11 -7 -74 37 -65 46 2 3 -3 11 -13 19 -15 12 -16 12 -8 -1 4
-8 -5 -3 -21 11 -16 14 -44 39 -61 54 -18 16 -33 32 -33 36 0 8 42 -18 269
-162z m-239 70 c32 -17 91 -61 132 -98 139 -127 273 -224 368 -268 51 -23 55
-39 28 -94 -31 -62 -31 -177 0 -235 23 -44 44 -58 73 -49 14 5 20 0 24 -22 10
-44 27 -83 42 -99 19 -18 57 -18 73 1 19 23 27 18 34 -22 3 -21 13 -51 21 -67
19 -36 5 -56 -40 -56 -37 0 -57 19 -81 75 -14 35 -17 37 -26 20 -16 -30 -50
-65 -63 -65 -36 0 -75 65 -75 126 l0 34 -45 -34 c-79 -60 -126 -60 -151 1 -17
41 -12 90 17 167 10 28 17 51 15 53 -1 2 -19 -12 -39 -31 -38 -36 -111 -66
-159 -66 -18 0 -39 10 -55 26 -22 22 -25 31 -19 71 7 50 28 86 95 157 32 33
40 46 26 42 -104 -29 -222 -30 -293 -1 -103 42 -73 135 58 182 27 10 50 20 50
23 0 4 -17 14 -37 23 -43 19 -138 108 -160 150 -48 93 58 125 187 56z m82
-512 c10 -3 8 -10 -5 -23 -18 -19 -18 -19 -11 0 6 16 4 18 -9 13 -13 -5 -17
-1 -17 19 0 22 2 24 15 11 8 -9 20 -17 27 -20z m-69 6 c-7 -2 -13 -12 -13 -21
0 -13 -3 -13 -12 -4 -10 10 -10 15 2 22 8 5 20 9 25 9 6 0 4 -3 -2 -6z m17
-58 c-12 -15 -4 -20 22 -16 4 0 5 -6 2 -14 -3 -8 -9 -14 -12 -13 -19 2 -23 -4
-12 -17 15 -18 4 -20 -14 -2 -7 7 -13 27 -13 45 0 25 5 32 20 32 16 0 17 -3 7
-15z m-30 -15 c0 -5 -5 -10 -11 -10 -5 0 -7 5 -4 10 3 6 8 10 11 10 2 0 4 -4
4 -10z m50 -121 c0 -5 -11 -7 -24 -3 -17 4 -28 0 -36 -13 -9 -13 -10 -14 -7
-2 3 9 0 22 -6 29 -10 10 -6 11 16 6 17 -4 27 -2 27 5 0 8 4 8 15 -1 8 -7 15
-16 15 -21z m-20 -35 c0 -8 -5 -12 -10 -9 -6 4 -8 11 -5 16 9 14 15 11 15 -7z
m-15 -24 c3 -5 -1 -10 -9 -10 -9 0 -16 5 -16 10 0 6 4 10 9 10 6 0 13 -4 16
-10z m56 -47 c-12 -8 -18 -20 -15 -31 4 -12 3 -13 -3 -5 -11 15 -53 9 -65 -9
-6 -9 -8 -7 -5 7 2 11 9 19 15 18 7 -2 12 2 12 8 0 6 9 8 21 4 16 -5 20 -3 19
12 -1 10 -2 27 -1 38 2 19 3 19 22 -4 19 -24 19 -24 0 -38z m114 19 c-3 -3
-11 0 -18 7 -9 10 -8 11 6 5 10 -3 15 -9 12 -12z m-48 -17 c8 -9 13 -19 10
-22 -6 -5 -37 21 -37 31 0 10 11 6 27 -9z m2733 5 c0 -5 -2 -10 -4 -10 -3 0
-8 5 -11 10 -3 6 -1 10 4 10 6 0 11 -4 11 -10z m79 -43 c0 -9 -2 -9 -5 -1 -3
7 -15 10 -27 8 -21 -4 -21 -4 -2 5 23 10 35 5 34 -12z m-2925 -23 c9 -24 7
-27 -9 -10 -17 17 -19 26 -6 26 5 0 12 -7 15 -16z m16 -52 c0 -2 -10 0 -21 3
-12 4 -24 3 -28 -2 -3 -6 -15 -1 -26 10 -11 11 -14 17 -8 13 7 -4 20 -3 29 2
12 7 23 4 35 -7 11 -8 19 -17 19 -19z m260 4 c0 -3 -4 -8 -10 -11 -5 -3 -10
-1 -10 4 0 6 5 11 10 11 6 0 10 -2 10 -4z m167 -2 c-3 -3 -12 -4 -19 -1 -8 3
-5 6 6 6 11 1 17 -2 13 -5z m-52 -24 c-3 -5 -10 -10 -16 -10 -5 0 -9 5 -9 10
0 6 7 10 16 10 8 0 12 -4 9 -10z m45 0 c0 -5 -5 -10 -11 -10 -5 0 -7 5 -4 10
3 6 8 10 11 10 2 0 4 -4 4 -10z m40 -20 c0 -5 -5 -10 -11 -10 -5 0 -7 5 -4 10
3 6 8 10 11 10 2 0 4 -4 4 -10z m-100 -4 c0 -3 -4 -8 -10 -11 -5 -3 -10 -1
-10 4 0 6 5 11 10 11 6 0 10 -2 10 -4z m10 -53 c-11 -17 -11 -17 -6 0 3 10 7
26 7 35 1 15 2 15 6 0 2 -10 -1 -25 -7 -35z m120 26 c0 -6 -5 -7 -10 -4 -6 4
-19 1 -28 -6 -13 -11 -13 -9 2 8 18 22 36 22 36 2z m44 -41 c-3 -4 -12 -8 -20
-8 -8 0 -14 4 -14 8 0 4 9 8 19 8 11 0 17 -4 15 -8z m176 -23 c0 -12 -19 -12
-23 0 -4 9 -1 12 9 8 7 -3 14 -7 14 -8z m80 -11 c0 -2 -7 -4 -15 -4 -8 0 -15
4 -15 10 0 5 7 7 15 4 8 -4 15 -8 15 -10z m-74 -23 c8 7 17 9 21 5 3 -3 1 -6
-5 -6 -7 0 -12 -9 -12 -20 0 -11 5 -20 12 -20 19 0 48 -31 48 -52 0 -10 -5
-18 -10 -18 -5 0 -9 -5 -7 -11 1 -6 -4 -14 -10 -16 -7 -3 -13 2 -13 11 0 9 -7
16 -15 16 -8 0 -15 4 -15 9 0 5 7 11 15 15 8 3 15 10 15 17 0 6 -7 9 -15 5 -8
-3 -15 0 -15 6 0 6 -6 5 -17 -3 -14 -12 -16 -12 -8 0 4 8 8 28 8 45 -1 17 1
25 4 18 4 -10 8 -10 19 -1z m387 -14 c3 -9 -2 -13 -16 -12 -11 1 -23 7 -25 13
-5 17 35 15 41 -1z m-303 -7 c-8 -5 -24 -10 -35 -10 -17 0 -17 2 -5 10 8 5 24
10 35 10 17 0 17 -2 5 -10z m78 -11 c-10 -7 -11 -9 0 -9 7 0 10 -5 7 -10 -5
-8 -11 -7 -20 0 -18 15 -8 41 12 33 12 -5 12 -7 1 -14z m155 -3 c4 -10 0 -14
-14 -13 -22 1 -25 13 -6 20 6 3 13 6 13 6 1 1 4 -5 7 -13z m-218 -17 c-4 -6 2
-13 14 -16 12 -3 21 -12 21 -20 0 -8 -4 -12 -9 -9 -5 4 -12 0 -14 -6 -3 -7 -6
-3 -6 10 -1 12 -5 22 -10 22 -5 0 -11 7 -15 15 -3 9 0 15 10 15 8 0 12 -5 9
-11z m140 1 c3 -6 -1 -7 -9 -4 -18 7 -21 14 -7 14 6 0 13 -4 16 -10z m-17 -54
c2 -10 0 -16 -6 -12 -5 3 -21 -5 -36 -19 -14 -13 -26 -23 -27 -22 0 1 -2 15
-3 30 -1 25 1 27 21 22 24 -6 32 9 11 19 -7 3 -2 4 12 3 15 -1 26 -9 28 -21z
m2167 -16 c3 -5 12 -10 20 -10 44 0 331 -147 409 -210 104 -83 196 -187 196
-221 0 -16 -8 -19 -42 -19 -78 0 -165 39 -428 191 -175 101 -171 99 -164 111
4 7 3 8 -4 4 -7 -4 -12 -1 -12 7 0 19 -27 30 -33 14 -2 -7 -8 -9 -12 -5 -4 4
2 31 13 60 12 29 23 61 26 71 6 19 21 23 31 7z m-1945 -50 c0 -5 -2 -10 -4
-10 -3 0 -8 5 -11 10 -3 6 -1 10 4 10 6 0 11 -4 11 -10z m1923 -153 c40 -24
93 -54 120 -67 26 -14 59 -35 72 -48 14 -13 29 -20 35 -17 5 3 13 -3 19 -12 6
-10 11 -14 11 -9 0 5 6 3 13 -3 8 -6 55 -31 104 -55 105 -51 151 -95 194 -181
34 -69 35 -116 3 -121 -62 -10 -305 100 -383 174 -8 7 -26 21 -40 30 -46 29
-48 34 -40 71 9 39 5 51 -17 51 -8 0 -17 -13 -21 -31 -6 -30 -7 -31 -20 -14
-7 11 -13 29 -13 42 0 13 -4 23 -10 23 -5 0 -10 -10 -10 -22 0 -28 -15 -12
-24 25 -4 18 -2 27 6 27 6 0 2 9 -10 20 -12 11 -25 20 -30 20 -6 0 -12 9 -15
21 -3 12 -10 18 -16 14 -6 -3 -11 -1 -11 5 0 6 -4 9 -9 6 -5 -3 -11 4 -14 16
-5 19 -8 20 -24 7 -16 -13 -17 -12 -5 3 8 10 17 16 20 15 4 -1 9 3 10 8 7 20
23 45 28 45 3 0 38 -19 77 -43z m-143 -51 c0 -3 -4 -8 -10 -11 -5 -3 -10 -1
-10 4 0 6 5 11 10 11 6 0 10 -2 10 -4z m54 -41 c-6 -16 -24 -21 -24 -7 0 11
11 22 21 22 5 0 6 -7 3 -15z m-84 -10 c-7 -9 -15 -13 -17 -11 -7 7 7 26 19 26
6 0 6 -6 -2 -15z m32 -23 c-7 -2 -12 -8 -12 -13 0 -4 6 -6 14 -3 8 3 28 -7 45
-23 27 -26 28 -29 9 -30 -11 -1 -26 -10 -32 -19 -10 -13 -15 -14 -21 -5 -4 7
-2 18 4 24 6 6 11 17 11 24 0 21 -21 15 -27 -7 -6 -23 -10 -24 -43 -5 l-25 14
32 7 c29 6 31 9 22 26 -8 15 -8 19 0 14 6 -4 11 -2 11 4 0 6 5 8 12 4 9 -6 9
-9 0 -12z m108 8 c8 -5 11 -12 7 -17 -5 -4 -12 -1 -17 7 -8 12 -10 11 -11 -5
0 -15 -2 -16 -6 -5 -3 8 -11 18 -17 22 -16 11 26 9 44 -2z m-195 -30 c3 -17 2
-21 -6 -13 -6 6 -19 9 -28 6 -12 -5 -11 -1 4 14 23 24 24 23 30 -7z m22 8 c-3
-8 -6 -5 -6 6 -1 11 2 17 5 13 3 -3 4 -12 1 -19z m183 -18 c0 -5 -2 -10 -4
-10 -3 0 -8 5 -11 10 -3 6 -1 10 4 10 6 0 11 -4 11 -10z m-350 -71 c0 -12 -4
-17 -11 -13 -8 4 -9 0 -4 -15 4 -15 1 -23 -10 -27 -13 -5 -14 -9 -4 -15 8 -4
11 -10 8 -13 -3 -3 -14 1 -25 8 -19 15 -19 15 0 29 15 11 16 16 6 22 -10 6 -7
12 11 26 30 23 29 23 29 -2z m115 3 c-3 -3 -11 0 -18 7 -9 10 -8 11 6 5 10 -3
15 -9 12 -12z m34 -23 c1 10 4 11 15 2 18 -15 29 -54 13 -45 -28 16 -56 48
-50 57 4 6 10 3 14 -9 4 -10 8 -13 8 -5z m321 7 c0 -3 -4 -8 -10 -11 -5 -3
-10 -1 -10 4 0 6 5 11 10 11 6 0 10 -2 10 -4z m-461 -92 c-10 -12 -9 -13 6 -8
15 6 17 3 13 -18 -4 -19 -1 -25 9 -21 9 4 11 0 6 -13 -4 -11 -3 -15 4 -11 13
8 47 -29 38 -42 -3 -6 1 -11 9 -11 10 0 13 -6 9 -15 -7 -21 -28 -13 -29 11 -1
10 -2 25 -3 32 -1 6 -5 12 -11 12 -5 0 -7 -7 -4 -15 12 -29 -4 -14 -45 45 -24
33 -37 59 -30 58 8 -2 15 8 17 22 4 21 5 22 14 7 7 -13 6 -23 -3 -33z m84 32
c4 -10 1 -13 -9 -9 -15 6 -19 23 -5 23 5 0 11 -7 14 -14z m-250 -9 c4 3 7 -1
7 -9 0 -9 6 -18 13 -21 6 -2 10 -7 7 -10 -9 -9 -71 34 -64 44 4 6 11 6 18 0 7
-6 16 -8 19 -4z m61 2 c-3 -6 0 -15 7 -20 12 -8 12 -11 -1 -19 -21 -13 -34 4
-21 29 7 12 14 21 17 21 3 0 2 -5 -2 -11z m-74 -34 c0 -2 -7 -5 -15 -9 -9 -3
-15 0 -15 9 0 9 6 12 15 9 8 -4 15 -7 15 -9z m290 -1 c0 -10 6 -14 14 -11 11
4 13 1 9 -10 -5 -12 -1 -14 17 -8 16 5 21 4 18 -6 -7 -20 -39 -11 -65 17 -27
29 -28 34 -8 34 8 0 15 -7 15 -16z m-270 -24 c0 -5 -5 -10 -11 -10 -5 0 -7 5
-4 10 3 6 8 10 11 10 2 0 4 -4 4 -10z m394 -5 c3 -9 0 -15 -9 -15 -8 0 -15 -8
-15 -17 0 -10 4 -14 8 -8 12 17 43 11 63 -14 17 -21 18 -26 5 -40 -7 -9 -17
-26 -20 -38 -4 -13 -12 -23 -18 -23 -5 0 -8 -6 -5 -14 3 -8 1 -17 -6 -20 -8
-3 -8 -5 1 -5 8 -1 19 13 25 29 6 17 15 30 19 30 4 0 8 6 8 14 0 7 6 18 13 24
9 8 24 0 57 -29 25 -23 61 -53 79 -67 52 -40 81 -73 81 -92 0 -9 7 -25 15 -36
8 -10 15 -27 15 -36 0 -10 4 -18 10 -18 17 0 -1 -28 -21 -33 -23 -6 -165 41
-206 69 -15 10 -37 24 -48 30 -48 25 -160 127 -146 132 6 2 9 8 6 12 -3 5 -12
7 -20 4 -7 -3 -18 3 -24 14 -16 29 16 39 38 11 l16 -20 26 20 c24 18 28 19 47
5 19 -13 21 -13 16 1 -3 8 -14 16 -23 17 -9 0 -21 2 -28 2 -6 1 -15 5 -19 9
-14 14 -26 7 -14 -8 17 -20 4 -33 -14 -14 -19 19 -30 59 -17 59 6 0 8 7 4 16
-4 12 -2 15 8 12 8 -3 13 -15 10 -29 l-3 -24 27 27 c18 18 25 33 21 44 -4 10
-1 21 6 26 19 11 25 10 32 -7z m-364 -5 c0 -5 -4 -10 -10 -10 -5 0 -10 5 -10
10 0 6 5 10 10 10 6 0 10 -4 10 -10z m95 -38 c-8 -8 -25 10 -25 26 0 13 2 13
14 -4 8 -10 13 -21 11 -22z m-67 -34 c13 -15 27 -26 32 -23 4 3 6 -4 3 -15 -6
-21 -6 -21 -20 0 -8 12 -21 19 -28 16 -8 -3 -11 2 -8 15 3 11 -1 21 -11 25 -9
3 -16 10 -16 16 0 13 21 -1 48 -34z m153 -88 c-9 -5 -9 -10 -3 -14 6 -3 12 0
15 6 12 33 146 -178 147 -230 0 -20 -4 -22 -22 -16 -36 11 -98 56 -98 70 0 7
-6 11 -14 8 -8 -3 -16 3 -19 16 -3 12 -10 19 -16 15 -7 -3 -11 2 -11 14 0 12
5 21 11 21 6 0 9 6 6 14 -3 8 -1 17 6 20 7 2 2 5 -10 5 -14 1 -21 -4 -17 -12
2 -7 -4 -13 -16 -14 -23 -2 -35 13 -19 23 8 5 9 3 4 -6 -5 -9 -4 -11 4 -6 16
10 -7 39 -26 32 -7 -3 -13 -3 -13 0 0 2 10 9 23 14 l22 9 -24 0 c-16 1 -21 5
-18 16 8 20 -8 28 -22 11 -8 -10 -9 -16 -1 -19 6 -3 5 -4 -2 -3 -7 2 -13 7
-13 12 0 5 -4 15 -9 23 -7 10 -4 12 14 6 16 -5 21 -4 18 6 -3 8 4 23 14 34 19
20 19 20 -14 26 -30 6 -14 14 20 10 6 -1 12 3 12 10 0 6 19 -12 42 -41 30 -38
38 -54 29 -60z"/>
<path d="M1266 2396 c21 -15 30 -14 19 3 -3 6 -14 11 -23 11 -13 0 -13 -2 4
-14z"/>
<path d="M1300 2360 c0 -5 5 -10 10 -10 6 0 10 5 10 10 0 6 -4 10 -10 10 -5 0
-10 -4 -10 -10z"/>
<path d="M1660 1445 c-10 -12 -10 -15 4 -15 9 0 16 7 16 15 0 8 -2 15 -4 15
-2 0 -9 -7 -16 -15z"/>
<path d="M4311 1184 c0 -11 3 -14 6 -6 3 7 2 16 -1 19 -3 4 -6 -2 -5 -13z"/>
<path d="M4358 1143 c7 -3 16 -2 19 1 4 3 -2 6 -13 5 -11 0 -14 -3 -6 -6z"/>
<path d="M4425 1040 c-3 -5 -1 -10 4 -10 6 0 11 5 11 10 0 6 -2 10 -4 10 -3 0
-8 -4 -11 -10z"/>
<path d="M3984 1175 c-3 -8 -4 -20 -2 -27 3 -7 7 -1 10 15 6 29 1 36 -8 12z"/>
<path d="M3998 1053 c7 -3 16 -2 19 1 4 3 -2 6 -13 5 -11 0 -14 -3 -6 -6z"/>
<path d="M4040 1040 c0 -5 7 -10 15 -10 8 0 15 5 15 10 0 6 -7 10 -15 10 -8 0
-15 -4 -15 -10z"/>
<path d="M4130 989 c0 -5 5 -7 10 -4 6 3 10 8 10 11 0 2 -4 4 -10 4 -5 0 -10
-5 -10 -11z"/>
<path d="M4160 960 c0 -4 9 -10 20 -13 11 -3 20 -2 20 3 0 4 -9 10 -20 13 -11
3 -20 2 -20 -3z"/>
<path d="M4135 920 c3 -5 18 -10 32 -10 18 0 24 -4 19 -15 -6 -18 29 -41 39
-25 3 5 -1 10 -10 10 -9 0 -15 6 -12 13 2 6 -3 17 -12 24 -19 15 -65 17 -56 3z"/>
<path d="M4235 900 c3 -5 8 -10 11 -10 2 0 4 5 4 10 0 6 -5 10 -11 10 -5 0 -7
-4 -4 -10z"/>
<path d="M4405 820 c-3 -5 -1 -10 4 -10 6 0 11 5 11 10 0 6 -2 10 -4 10 -3 0
-8 -4 -11 -10z"/>
<path d="M3835 763 c-16 -12 -16 -14 -3 -10 10 3 25 -1 33 -10 9 -8 19 -12 23
-9 3 4 0 11 -7 15 -7 5 -10 14 -7 20 11 16 -16 13 -39 -6z"/>
<path d="M3935 720 c3 -5 8 -10 11 -10 2 0 4 5 4 10 0 6 -5 10 -11 10 -5 0 -7
-4 -4 -10z"/>
<path d="M3811 669 c-21 -20 -21 -23 -7 -37 8 -9 19 -12 23 -8 4 4 1 11 -7 16
-8 6 -10 10 -4 10 11 0 28 29 21 36 -2 2 -14 -6 -26 -17z"/>
<path d="M3875 599 c-11 -16 -1 -19 13 -3 7 8 8 14 3 14 -5 0 -13 -5 -16 -11z"/>
<path d="M4090 481 c0 -5 5 -13 10 -16 6 -3 10 -2 10 4 0 5 -4 13 -10 16 -5 3
-10 2 -10 -4z"/>
<path d="M3620 730 c0 -5 5 -10 10 -10 6 0 10 5 10 10 0 6 -4 10 -10 10 -5 0
-10 -4 -10 -10z"/>
<path d="M3590 700 c0 -6 6 -9 12 -7 7 1 14 -8 16 -20 3 -18 6 -20 16 -11 19
18 8 43 -20 46 -13 1 -24 -3 -24 -8z"/>
<path d="M3658 633 c7 -3 16 -2 19 1 4 3 -2 6 -13 5 -11 0 -14 -3 -6 -6z"/>
<path d="M3713 605 c0 -9 4 -14 9 -13 5 2 10 8 10 13 0 5 -5 11 -10 13 -5 1
-9 -4 -9 -13z"/>
<path d="M3696 544 c-8 -21 -8 -24 4 -24 6 0 10 7 10 16 0 8 5 12 10 9 6 -3
10 -1 10 4 0 17 -27 13 -34 -5z"/>
<path d="M4345 2821 c-3 -5 -1 -12 5 -16 5 -3 10 1 10 9 0 18 -6 21 -15 7z"/>
<path d="M2305 2808 c-55 -31 -97 -108 -103 -191 -7 -88 30 -159 104 -203 53
-31 134 -33 182 -4 84 52 96 218 24 324 -46 68 -152 105 -207 74z m160 -68
c13 -14 16 -28 11 -53 -13 -70 -106 -70 -106 0 0 61 58 94 95 53z m52 -146 c7
-18 -17 -38 -31 -24 -11 11 -1 40 14 40 6 0 13 -7 17 -16z"/>
<path d="M1561 2778 c-52 -26 -103 -93 -127 -166 -21 -67 -16 -209 10 -262 9
-19 14 -26 10 -15 -3 11 -8 56 -11 100 -9 134 35 247 119 302 34 23 53 28 104
28 54 0 67 -4 100 -31 58 -47 91 -93 129 -180 39 -89 44 -87 15 9 -25 82 -94
177 -153 211 -57 34 -133 35 -196 4z"/>
<path d="M4100 2780 c0 -5 5 -10 10 -10 6 0 10 5 10 10 0 6 -4 10 -10 10 -5 0
-10 -4 -10 -10z"/>
<path d="M4150 2765 c-11 -13 -10 -14 4 -9 9 3 16 10 16 15 0 13 -6 11 -20 -6z"/>
<path d="M4235 2770 c3 -5 11 -10 16 -10 6 0 7 5 4 10 -3 6 -11 10 -16 10 -6
0 -7 -4 -4 -10z"/>
<path d="M4021 2724 c0 -11 3 -14 6 -6 3 7 2 16 -1 19 -3 4 -6 -2 -5 -13z"/>
<path d="M4048 2733 c6 -2 18 -2 25 0 6 3 1 5 -13 5 -14 0 -19 -2 -12 -5z"/>
<path d="M4090 2730 c0 -5 5 -10 10 -10 6 0 10 5 10 10 0 6 -4 10 -10 10 -5 0
-10 -4 -10 -10z"/>
<path d="M4127 2733 c-10 -17 32 -28 47 -13 8 10 6 12 -11 7 -12 -2 -24 0 -26
6 -2 8 -5 8 -10 0z"/>
<path d="M4190 2720 c0 -6 15 -9 35 -7 51 5 55 17 7 17 -23 0 -42 -5 -42 -10z"/>
<path d="M3177 2679 c4 -13 8 -18 11 -10 2 7 -1 18 -6 23 -8 8 -9 4 -5 -13z"/>
<path d="M4056 2665 c-3 -9 0 -15 9 -15 9 0 12 6 9 15 -4 8 -7 15 -9 15 -2 0
-5 -7 -9 -15z"/>
<path d="M4006 2655 c4 -8 10 -15 15 -15 4 0 6 7 3 15 -4 8 -10 15 -15 15 -4
0 -6 -7 -3 -15z"/>
<path d="M4101 2644 c0 -11 3 -14 6 -6 3 7 2 16 -1 19 -3 4 -6 -2 -5 -13z"/>
<path d="M4157 2643 c-4 -3 -7 -11 -7 -17 0 -6 5 -5 12 2 6 6 9 14 7 17 -3 3
-9 2 -12 -2z"/>
<path d="M4237 2643 c-4 -3 -7 -11 -7 -17 0 -6 5 -5 12 2 6 6 9 14 7 17 -3 3
-9 2 -12 -2z"/>
<path d="M1622 2607 c-12 -13 -22 -31 -22 -40 0 -20 -17 -31 -23 -15 -4 9 -6
10 -6 1 -1 -6 4 -15 9 -18 6 -3 10 -34 10 -69 0 -152 132 -271 213 -190 27 27
42 86 33 131 -3 16 -7 47 -8 70 -1 23 -5 40 -10 37 -4 -3 -8 4 -8 15 0 11 -17
38 -38 61 -34 35 -44 40 -84 40 -34 0 -50 -6 -66 -23z m162 -69 c12 -33 -14
-68 -49 -68 -24 0 -35 17 -35 54 0 52 67 63 84 14z"/>
<path d="M3335 2620 c4 -6 11 -8 16 -5 14 9 11 15 -7 15 -8 0 -12 -5 -9 -10z"/>
<path d="M3990 2620 c0 -5 7 -10 16 -10 8 0 12 5 9 10 -3 6 -10 10 -16 10 -5
0 -9 -4 -9 -10z"/>
<path d="M4310 2610 c0 -5 5 -10 10 -10 6 0 10 5 10 10 0 6 -4 10 -10 10 -5 0
-10 -4 -10 -10z"/>
<path d="M4171 2594 c0 -11 3 -14 6 -6 3 7 2 16 -1 19 -3 4 -6 -2 -5 -13z"/>
<path d="M4551 2603 c-2 -26 -154 -93 -213 -93 -20 0 -28 5 -28 18 -1 16 -1
16 -11 -1 -10 -17 -20 -18 -118 -12 -58 4 -112 10 -120 15 -8 4 -23 5 -33 2
-11 -3 -24 1 -29 9 -6 10 -8 9 -7 -6 2 -16 10 -20 41 -22 22 -2 46 -8 53 -14
7 -6 18 -8 24 -4 6 4 18 -1 25 -11 10 -13 14 -15 15 -5 0 10 10 12 48 6 84
-13 91 -13 164 2 111 23 209 80 195 115 -3 8 -6 9 -6 1z"/>
<path d="M3250 2590 c0 -5 5 -10 10 -10 6 0 10 5 10 10 0 6 -4 10 -10 10 -5 0
-10 -4 -10 -10z"/>
<path d="M541 2586 c2 -2 18 -6 34 -10 22 -5 26 -4 15 4 -14 9 -59 15 -49 6z"/>
<path d="M4273 2563 c9 -2 23 -2 30 0 6 3 -1 5 -18 5 -16 0 -22 -2 -12 -5z"/>
<path d="M3235 2550 c3 -5 8 -10 11 -10 2 0 4 5 4 10 0 6 -5 10 -11 10 -5 0
-7 -4 -4 -10z"/>
<path d="M4160 2549 c0 -5 5 -7 10 -4 6 3 10 8 10 11 0 2 -4 4 -10 4 -5 0 -10
-5 -10 -11z"/>
<path d="M4120 2540 c0 -5 5 -10 11 -10 5 0 7 5 4 10 -3 6 -8 10 -11 10 -2 0
-4 -4 -4 -10z"/>
<path d="M3920 2493 c0 -22 2 -25 10 -13 8 12 10 12 10 1 0 -8 3 -12 6 -8 8 8
-5 47 -17 47 -5 0 -9 -12 -9 -27z"/>
<path d="M3960 2490 c0 -5 5 -10 10 -10 6 0 10 5 10 10 0 6 -4 10 -10 10 -5 0
-10 -4 -10 -10z"/>
<path d="M3240 2479 c0 -5 5 -7 10 -4 6 3 10 8 10 11 0 2 -4 4 -10 4 -5 0 -10
-5 -10 -11z"/>
<path d="M4030 2464 c0 -8 5 -12 10 -9 6 3 10 10 10 16 0 5 -4 9 -10 9 -5 0
-10 -7 -10 -16z"/>
<path d="M3786 2462 c-3 -5 3 -17 14 -27 17 -16 20 -16 20 -2 0 8 6 17 13 20
6 2 8 8 4 13 -4 5 -12 2 -18 -6 -7 -13 -10 -13 -18 -1 -5 8 -11 9 -15 3z"/>
<path d="M3980 2460 c0 -4 7 -13 15 -20 12 -10 15 -9 15 7 0 11 -7 20 -15 20
-8 0 -15 -4 -15 -7z"/>
<path d="M3756 2445 c-8 -22 -8 -22 9 -22 17 0 18 6 6 25 -7 11 -10 10 -15 -3z"/>
<path d="M3916 2445 c4 -9 0 -15 -9 -15 -27 0 -67 -22 -67 -37 0 -8 -4 -12 -9
-8 -5 3 -12 1 -15 -4 -3 -5 1 -12 10 -15 22 -9 24 -8 24 10 0 8 5 12 10 9 6
-3 13 1 16 9 3 9 10 14 14 11 4 -3 13 2 20 10 7 8 19 15 27 15 13 0 13 3 3 15
-7 8 -16 15 -21 15 -5 0 -6 -7 -3 -15z"/>
<path d="M4171 2444 c0 -11 3 -14 6 -6 3 7 2 16 -1 19 -3 4 -6 -2 -5 -13z"/>
<path d="M4030 2420 c0 -5 7 -10 15 -10 8 0 15 5 15 10 0 6 -7 10 -15 10 -8 0
-15 -4 -15 -10z"/>
<path d="M4074 2409 c-3 -6 -1 -16 5 -22 8 -8 11 -5 11 11 0 24 -5 28 -16 11z"/>
<path d="M550 2391 c30 -11 70 -20 88 -21 18 0 41 -4 50 -9 9 -5 26 -5 37 -1
16 6 17 9 5 13 -22 8 -117 25 -180 32 l-55 6 55 -20z"/>
<path d="M3788 2385 c-3 -14 -1 -28 3 -31 5 -3 9 9 9 25 0 38 -6 40 -12 6z"/>
<path d="M3980 2401 c0 -5 5 -13 10 -16 6 -3 10 -2 10 4 0 5 -4 13 -10 16 -5
3 -10 2 -10 -4z"/>
<path d="M3925 2390 c-3 -5 -1 -10 4 -10 6 0 11 5 11 10 0 6 -2 10 -4 10 -3 0
-8 -4 -11 -10z"/>
<path d="M4010 2390 c0 -5 5 -10 10 -10 6 0 10 5 10 10 0 6 -4 10 -10 10 -5 0
-10 -4 -10 -10z"/>
<path d="M4160 2388 c0 -24 15 -37 30 -28 10 7 11 10 3 10 -7 0 -13 7 -13 15
0 8 -4 15 -10 15 -5 0 -10 -6 -10 -12z"/>
<path d="M4120 2376 c0 -8 4 -17 9 -20 5 -4 7 3 4 14 -6 23 -13 26 -13 6z"/>
<path d="M3887 2373 c-11 -11 -8 -20 8 -20 8 0 15 6 15 14 0 14 -12 17 -23 6z"/>
<path d="M3925 2360 c-3 -6 1 -7 9 -4 18 7 21 14 7 14 -6 0 -13 -4 -16 -10z"/>
<path d="M3960 2361 c0 -5 7 -12 16 -15 24 -9 28 -7 14 9 -14 17 -30 20 -30 6z"/>
<path d="M4035 2360 c-3 -5 1 -10 9 -10 9 0 16 5 16 10 0 6 -4 10 -9 10 -6 0
-13 -4 -16 -10z"/>
<path d="M4074 2334 c-2 -21 -1 -21 17 -6 24 20 24 28 1 28 -10 0 -18 -8 -18
-22z"/>
<path d="M415 2340 c-3 -6 1 -7 9 -4 18 7 21 14 7 14 -6 0 -13 -4 -16 -10z"/>
<path d="M3820 2340 c0 -5 5 -10 10 -10 6 0 10 5 10 10 0 6 -4 10 -10 10 -5 0
-10 -4 -10 -10z"/>
<path d="M3775 2331 c-7 -12 12 -24 25 -16 11 7 4 25 -10 25 -5 0 -11 -4 -15
-9z"/>
<path d="M4182 2320 c-10 -17 -10 -20 3 -20 8 0 15 2 15 4 0 2 3 11 6 20 9 23
-9 20 -24 -4z"/>
<path d="M1964 2311 c-56 -25 -87 -89 -92 -188 -5 -84 1 -88 60 -48 20 14 39
25 42 25 2 0 18 -24 36 -54 32 -58 84 -110 120 -121 29 -9 63 24 79 74 14 48
14 191 0 211 -8 11 -9 0 -4 -40 10 -91 -20 -214 -54 -223 -22 -5 -54 11 -45
24 3 5 0 8 -6 7 -6 -2 -19 8 -28 22 l-17 24 38 -23 c21 -13 39 -22 41 -20 21
26 46 299 28 299 -6 0 -18 -13 -26 -29 -16 -30 -92 -89 -190 -147 -32 -18 -60
-34 -62 -34 -2 0 -4 18 -4 41 0 112 48 182 142 204 48 12 49 13 18 14 -19 0
-53 -8 -76 -18z"/>
<path d="M4114 2314 c3 -9 6 -20 6 -25 0 -5 4 -9 10 -9 5 0 7 7 3 16 -3 9 0
20 8 25 10 6 8 9 -10 9 -17 0 -22 -4 -17 -16z"/>
<path d="M3825 2310 c3 -5 8 -10 11 -10 2 0 4 5 4 10 0 6 -5 10 -11 10 -5 0
-7 -4 -4 -10z"/>
<path d="M3542 2288 c2 -6 10 -14 16 -16 7 -2 10 2 6 12 -7 18 -28 22 -22 4z"/>
<path d="M3828 2293 c-25 -6 -22 -20 4 -19 12 0 23 7 26 14 4 12 0 13 -30 5z"/>
<path d="M3657 2283 c-4 -3 -7 -13 -7 -22 1 -13 3 -13 11 2 11 19 8 33 -4 20z"/>
<path d="M3732 2278 c-15 -15 -16 -38 -2 -38 6 0 10 5 10 11 0 8 6 7 17 -2 15
-13 15 -12 3 11 -7 14 -14 26 -15 27 -1 2 -7 -3 -13 -9z"/>
<path d="M3680 2245 c0 -22 -2 -24 -26 -15 -14 6 -27 10 -28 10 -2 0 -3 -15
-3 -32 -1 -27 1 -29 7 -13 5 11 9 16 9 10 1 -5 6 -3 11 5 8 12 12 12 18 2 8
-12 14 -4 40 51 2 4 -4 7 -12 7 -10 0 -16 -9 -16 -25z"/>
<path d="M3807 2254 c-4 -4 -7 -14 -7 -23 0 -11 3 -12 11 -4 6 6 10 16 7 23
-2 6 -7 8 -11 4z"/>
<path d="M3905 2250 c3 -5 8 -10 11 -10 2 0 4 5 4 10 0 6 -5 10 -11 10 -5 0
-7 -4 -4 -10z"/>
<path d="M3843 2235 c0 -8 4 -15 9 -15 4 0 8 4 8 9 0 6 -4 12 -8 15 -5 3 -9
-1 -9 -9z"/>
<path d="M3597 2233 c-4 -3 -7 -18 -6 -32 1 -26 1 -25 10 3 9 31 7 41 -4 29z"/>
<path d="M3874 2227 c3 -10 6 -21 6 -23 0 -3 4 -3 9 0 4 3 6 -6 3 -20 -5 -26
-4 -26 17 -8 26 22 27 44 3 44 -10 0 -24 6 -31 13 -11 10 -13 9 -7 -6z"/>
<path d="M3540 2201 c-13 -26 -13 -44 1 -39 7 2 13 16 15 31 3 32 -1 34 -16 8z"/>
<path d="M3696 2211 c-8 -12 39 -30 53 -21 9 5 3 11 -18 18 -17 6 -33 7 -35 3z"/>
<path d="M3770 2210 c0 -5 5 -10 10 -10 6 0 10 5 10 10 0 6 -4 10 -10 10 -5 0
-10 -4 -10 -10z"/>
<path d="M3827 2203 c-10 -9 -8 -43 2 -43 5 0 9 11 9 25 0 27 -1 28 -11 18z"/>
<path d="M3860 2181 c0 -5 5 -13 10 -16 6 -3 10 -2 10 4 0 5 -4 13 -10 16 -5
3 -10 2 -10 -4z"/>
<path d="M3232 2168 c2 -6 10 -14 16 -16 7 -2 10 2 6 12 -7 18 -28 22 -22 4z"/>
<path d="M3390 2171 c0 -5 23 -9 51 -9 28 -1 48 2 45 6 -11 10 -96 13 -96 3z"/>
<path d="M3685 2169 c-10 -15 3 -25 16 -12 7 7 7 13 1 17 -6 3 -14 1 -17 -5z"/>
<path d="M4005 2170 c3 -5 8 -10 11 -10 2 0 4 5 4 10 0 6 -5 10 -11 10 -5 0
-7 -4 -4 -10z"/>
<path d="M3315 2149 c7 -11 35 -12 35 -1 0 4 -9 8 -20 9 -11 1 -18 -2 -15 -8z"/>
<path d="M3721 2149 c-1 -22 -30 -32 -47 -18 -9 7 -14 7 -14 1 0 -14 59 -37
69 -26 4 5 5 20 0 34 -4 14 -7 18 -8 9z"/>
<path d="M653 2137 c-8 -13 -1 -15 40 -9 20 2 37 8 37 13 0 12 -69 8 -77 -4z"/>
<path d="M3409 2131 c-14 -16 -14 -19 11 -33 21 -12 28 -12 38 -1 11 11 7 13
-20 14 l-33 1 29 10 c21 8 25 13 15 19 -18 11 -21 11 -40 -10z"/>
<path d="M3900 2140 c0 -5 7 -7 15 -4 8 4 15 8 15 10 0 2 -7 4 -15 4 -8 0 -15
-4 -15 -10z"/>
<path d="M3980 2133 c0 -10 4 -14 8 -8 4 6 11 13 16 18 5 4 2 7 -7 7 -10 0
-17 -8 -17 -17z"/>
<path d="M3490 2131 c-15 -4 -20 -10 -13 -14 13 -8 43 1 43 14 0 5 -1 9 -2 8
-2 -1 -14 -4 -28 -8z"/>
<path d="M3856 2121 c-3 -5 1 -11 9 -15 8 -3 15 -1 15 4 0 13 -18 22 -24 11z"/>
<path d="M688 2113 c-17 -4 -14 -33 4 -33 5 0 6 5 3 10 -3 6 -1 10 4 10 6 0
11 -5 11 -11 0 -5 4 -8 9 -4 6 3 14 -2 19 -11 6 -12 11 -13 16 -5 7 10 -31 52
-44 50 -3 -1 -13 -3 -22 -6z"/>
<path d="M3530 2100 c0 -11 -6 -18 -12 -16 -7 1 -10 1 -5 -1 19 -11 4 -25 -20
-19 -19 4 -23 4 -14 -3 7 -5 10 -14 7 -20 -4 -6 0 -11 9 -11 9 0 13 5 10 10
-3 6 -2 10 2 10 5 0 14 -9 21 -20 7 -12 18 -18 24 -14 7 4 5 10 -6 16 -17 10
-23 48 -7 48 6 0 9 9 8 20 -2 26 -17 26 -17 0z"/>
<path d="M3340 2096 c0 -8 5 -18 10 -21 6 -3 10 1 10 9 0 8 -4 18 -10 21 -5 3
-10 -1 -10 -9z"/>
<path d="M3237 2080 c-3 -11 -1 -20 4 -20 5 0 9 9 9 20 0 11 -2 20 -4 20 -2 0
-6 -9 -9 -20z"/>
<path d="M3620 2094 c0 -3 6 -12 14 -20 11 -10 17 -11 22 -3 3 6 0 15 -7 20
-16 10 -29 12 -29 3z"/>
<path d="M3687 2089 c7 -7 15 -10 18 -7 3 3 -2 9 -12 12 -14 6 -15 5 -6 -5z"/>
<path d="M3725 2066 c-17 -12 -16 -13 13 -12 18 0 31 5 29 10 -5 16 -22 17
-42 2z"/>
<path d="M567 2050 c3 -11 9 -20 15 -20 5 0 4 9 -2 20 -6 11 -12 20 -14 20 -2
0 -2 -9 1 -20z"/>
<path d="M655 2060 c3 -5 8 -10 11 -10 2 0 4 5 4 10 0 6 -5 10 -11 10 -5 0 -7
-4 -4 -10z"/>
<path d="M3410 2050 c-7 -13 -7 -20 -1 -20 6 0 15 9 21 20 7 13 7 20 1 20 -6
0 -15 -9 -21 -20z"/>
<path d="M625 2050 c3 -5 8 -10 11 -10 2 0 4 5 4 10 0 6 -5 10 -11 10 -5 0 -7
-4 -4 -10z"/>
<path d="M3800 2049 c0 -5 5 -7 10 -4 6 3 10 8 10 11 0 2 -4 4 -10 4 -5 0 -10
-5 -10 -11z"/>
<path d="M3046 2011 c-10 -55 -31 -104 -49 -119 -17 -14 -38 6 -58 53 -12 29
-13 28 -19 -35 -12 -111 -54 -179 -104 -166 -23 6 -41 32 -59 86 -3 8 -6 -7
-6 -34 -1 -69 -20 -124 -57 -162 -35 -38 -63 -43 -86 -16 -18 21 -38 75 -39
111 -1 14 -5 -4 -9 -40 -9 -74 -39 -143 -71 -160 -29 -15 -65 12 -97 72 l-23
44 6 -35 c9 -48 55 -104 89 -108 34 -4 77 39 96 98 14 41 14 41 27 17 18 -36
57 -42 93 -17 37 27 80 98 80 134 l0 27 28 -21 c40 -30 76 -19 109 34 14 22
30 44 36 47 5 4 6 16 2 28 -10 32 3 43 26 20 l21 -21 28 27 c34 32 53 87 48
140 l-3 40 -9 -44z"/>
<path d="M3165 2040 c3 -5 8 -10 11 -10 2 0 4 5 4 10 0 6 -5 10 -11 10 -5 0
-7 -4 -4 -10z"/>
<path d="M3631 2034 c0 -11 3 -14 6 -6 3 7 2 16 -1 19 -3 4 -6 -2 -5 -13z"/>
<path d="M3325 2030 c3 -5 8 -10 11 -10 2 0 4 5 4 10 0 6 -5 10 -11 10 -5 0
-7 -4 -4 -10z"/>
<path d="M3680 2030 c0 -5 5 -10 10 -10 6 0 10 5 10 10 0 6 -4 10 -10 10 -5 0
-10 -4 -10 -10z"/>
<path d="M3480 2000 c0 -5 5 -10 11 -10 5 0 7 5 4 10 -3 6 -8 10 -11 10 -2 0
-4 -4 -4 -10z"/>
<path d="M560 1982 c0 -12 4 -22 9 -22 5 0 11 -10 15 -22 5 -19 8 -21 16 -8 5
8 10 20 10 25 0 6 -5 3 -10 -5 -7 -10 -10 -11 -11 -2 -1 6 -2 16 -3 22 0 5 -7
15 -13 22 -10 10 -13 8 -13 -10z"/>
<path d="M3351 1984 c0 -11 3 -14 6 -6 3 7 2 16 -1 19 -3 4 -6 -2 -5 -13z"/>
<path d="M465 1980 c-3 -5 -2 -10 4 -10 5 0 13 5 16 10 3 6 2 10 -4 10 -5 0
-13 -4 -16 -10z"/>
<path d="M492 1965 c-7 -8 -8 -15 -3 -15 5 0 13 5 16 10 4 6 11 8 16 5 5 -4 9
-1 9 4 0 16 -23 13 -38 -4z"/>
<path d="M3085 1960 c-3 -5 -1 -10 4 -10 6 0 11 5 11 10 0 6 -2 10 -4 10 -3 0
-8 -4 -11 -10z"/>
<path d="M3505 1953 c-15 -12 -16 -14 -3 -10 9 3 19 1 21 -6 2 -7 8 -8 13 -3
5 5 4 11 -4 13 -6 3 -10 9 -6 14 8 13 2 11 -21 -8z"/>
<path d="M698 1942 c-9 -13 -24 -18 -50 -17 -21 2 -38 -1 -38 -6 0 -5 3 -10 8
-10 69 -12 112 -4 112 21 0 27 -17 33 -32 12z"/>
<path d="M740 1930 c0 -5 7 -10 15 -10 8 0 15 5 15 10 0 6 -7 10 -15 10 -8 0
-15 -4 -15 -10z"/>
<path d="M515 1920 c-3 -5 1 -10 9 -10 9 0 16 5 16 10 0 6 -4 10 -9 10 -6 0
-13 -4 -16 -10z"/>
<path d="M3320 1860 c0 -5 5 -10 10 -10 6 0 10 5 10 10 0 6 -4 10 -10 10 -5 0
-10 -4 -10 -10z"/>
<path d="M732 1841 c-22 -16 -23 -18 -6 -32 15 -12 16 -12 9 0 -5 9 -2 19 10
27 10 8 17 16 14 18 -2 3 -15 -3 -27 -13z"/>
<path d="M770 1828 c0 -10 6 -18 13 -18 7 0 13 8 14 18 1 10 -5 19 -13 19 -8
0 -14 -9 -14 -19z"/>
<path d="M2960 1821 c0 -6 5 -13 11 -17 8 -4 7 -9 -2 -15 -12 -7 -11 -11 2
-25 11 -11 19 -12 23 -5 4 6 2 11 -4 11 -7 0 -8 6 -1 18 7 14 5 21 -10 30 -10
7 -19 8 -19 3z"/>
<path d="M3070 1749 c0 -5 5 -7 10 -4 6 3 10 8 10 11 0 2 -4 4 -10 4 -5 0 -10
-5 -10 -11z"/>
<path d="M650 1730 c-13 -8 -12 -10 3 -10 9 0 17 5 17 10 0 12 -1 12 -20 0z"/>
<path d="M1063 1733 c-7 -3 -13 -9 -13 -15 0 -6 7 -8 15 -4 9 3 15 0 15 -10 0
-12 -6 -15 -25 -10 -14 4 -25 3 -25 -2 0 -12 -41 -54 -47 -48 -3 2 2 15 11 28
18 25 21 48 7 48 -5 0 -15 -16 -22 -35 -10 -25 -18 -34 -29 -30 -11 5 -12 3
-3 -6 6 -6 9 -18 6 -25 -3 -8 -1 -14 5 -14 6 0 12 5 14 11 6 17 66 18 80 2 15
-19 4 -27 -21 -13 -12 6 -21 7 -21 2 0 -5 12 -15 28 -22 16 -7 22 -14 14 -17
-7 -3 -19 0 -26 7 -17 14 -28 -1 -15 -20 6 -11 9 -12 9 -2 0 7 5 10 10 7 6 -3
10 -13 10 -21 0 -8 -4 -12 -10 -9 -5 3 -10 1 -10 -4 0 -6 3 -11 8 -11 4 0 15
-14 25 -31 16 -28 45 -36 40 -10 -2 6 4 11 12 11 8 0 15 5 15 10 0 6 5 10 11
10 23 0 36 33 31 79 -5 46 -21 71 -55 84 -10 4 -15 11 -12 17 9 14 -17 48 -32
43z m4 -68 c2 -6 -6 -11 -17 -11 -11 0 -20 6 -20 14 0 15 32 13 37 -3z m61
-28 c6 0 10 -2 8 -4 -2 -3 -6 -4 -8 -2 -1 1 -13 -3 -25 -9 -14 -8 -24 -9 -28
-2 -10 16 5 32 24 24 9 -3 22 -7 29 -7z m12 -47 c0 -5 -2 -10 -4 -10 -3 0 -8
5 -11 10 -3 6 -1 10 4 10 6 0 11 -4 11 -10z m-37 -14 c4 -10 1 -13 -9 -9 -7 3
-14 0 -14 -6 0 -6 6 -11 14 -11 15 0 30 -29 21 -39 -3 -3 -10 1 -15 9 -6 8
-10 12 -10 8 0 -4 -8 -1 -19 8 -17 15 -17 18 -3 35 20 23 28 24 35 5z m31 -31
c3 -8 1 -15 -4 -15 -6 0 -10 7 -10 15 0 8 2 15 4 15 2 0 6 -7 10 -15z m-54
-46 c0 -6 -4 -7 -10 -4 -5 3 -10 11 -10 16 0 6 5 7 10 4 6 -3 10 -11 10 -16z"/>
<path d="M3030 1716 c0 -17 16 -30 23 -19 3 5 -1 14 -9 21 -12 10 -14 10 -14
-2z"/>
<path d="M3090 1705 c0 -26 49 -95 82 -115 67 -40 87 15 36 98 -25 41 -37 28
-14 -17 17 -32 21 -71 8 -71 -14 0 -70 57 -86 88 -18 35 -26 40 -26 17z"/>
<path d="M2970 1705 c1 -12 25 -45 32 -45 3 0 8 9 11 21 4 14 2 19 -8 16 -7
-3 -18 0 -24 6 -6 6 -11 7 -11 2z"/>
<path d="M3470 1699 c0 -5 5 -7 10 -4 6 3 10 8 10 11 0 2 -4 4 -10 4 -5 0 -10
-5 -10 -11z"/>
<path d="M727 1656 c-4 -10 -1 -13 8 -9 8 3 18 -2 21 -11 3 -9 10 -13 16 -10
5 3 -1 14 -13 25 -26 23 -25 23 -32 5z"/>
<path d="M661 1634 c0 -11 3 -14 6 -6 3 7 2 16 -1 19 -3 4 -6 -2 -5 -13z"/>
<path d="M695 1640 c-3 -6 0 -10 7 -10 9 0 9 -3 -2 -10 -8 -5 -10 -10 -5 -10
23 0 33 15 19 27 -8 8 -15 9 -19 3z"/>
<path d="M3045 1640 c3 -5 11 -10 16 -10 6 0 7 5 4 10 -3 6 -11 10 -16 10 -6
0 -7 -4 -4 -10z"/>
<path d="M3836 1615 c20 -49 18 -51 -22 -20 -48 37 -52 27 -7 -19 38 -37 56
-41 61 -14 4 21 -24 88 -37 88 -6 0 -4 -15 5 -35z"/>
<path d="M920 1609 c0 -5 5 -7 10 -4 6 3 10 8 10 11 0 2 -4 4 -10 4 -5 0 -10
-5 -10 -11z"/>
<path d="M3025 1610 c3 -5 8 -10 11 -10 2 0 4 5 4 10 0 6 -5 10 -11 10 -5 0
-7 -4 -4 -10z"/>
<path d="M979 1599 c-1 -8 -1 -17 0 -21 0 -5 -11 -8 -25 -8 -16 0 -23 4 -18
12 4 6 3 8 -3 5 -15 -9 -4 -54 13 -54 8 0 13 6 10 14 -7 17 2 17 20 -1 22 -22
17 -34 -12 -28 -19 3 -25 1 -20 -7 4 -6 13 -11 21 -11 21 0 30 -21 14 -32 -11
-8 -10 -9 4 -4 9 3 17 1 17 -5 0 -6 6 -9 14 -6 7 3 18 1 23 -4 7 -7 12 -5 16
5 4 9 2 16 -3 16 -6 0 -10 7 -10 15 0 8 -4 15 -10 15 -5 0 -10 -4 -10 -10 0
-5 -3 -10 -7 -10 -8 0 -10 12 -17 83 -3 38 -15 62 -17 36z"/>
<path d="M3662 1603 c20 -39 38 -86 35 -89 -2 -3 -27 16 -56 42 -52 47 -65 48
-34 4 20 -29 47 -50 85 -67 22 -9 27 -9 32 3 7 17 -17 78 -38 99 -15 16 -30
20 -24 8z"/>
<path d="M2895 1539 c8 -23 15 -51 16 -63 0 -12 3 -15 6 -8 6 16 -16 100 -28
108 -5 2 -2 -14 6 -37z"/>
<path d="M900 1531 c0 -25 6 -27 13 -6 4 8 2 17 -3 20 -6 4 -10 -3 -10 -14z"/>
<path d="M1280 1510 c6 -11 15 -20 20 -20 6 0 10 9 10 20 0 13 -7 20 -20 20
-18 0 -19 -3 -10 -20z"/>
<path d="M1190 1499 c0 -11 5 -17 10 -14 6 3 10 -2 10 -11 0 -10 2 -15 5 -12
9 8 -6 58 -16 58 -5 0 -9 -9 -9 -21z"/>
<path d="M2836 1487 c9 -20 21 -34 26 -31 10 6 -5 36 -27 54 -15 12 -14 9 1
-23z"/>
<path d="M1330 1490 c0 -19 3 -21 12 -12 9 9 9 15 0 24 -9 9 -12 7 -12 -12z"/>
<path d="M1370 1483 c0 -7 4 -13 9 -13 5 0 11 6 14 13 3 8 -1 14 -9 14 -8 0
-14 -6 -14 -14z"/>
<path d="M902 1470 c0 -14 2 -19 5 -12 2 6 2 18 0 25 -3 6 -5 1 -5 -13z"/>
<path d="M1258 1473 c-26 -7 -22 -18 6 -18 15 0 22 5 19 13 -3 6 -6 11 -7 11
0 -1 -9 -3 -18 -6z"/>
<path d="M2760 1466 c0 -2 8 -10 18 -17 15 -13 16 -12 3 4 -13 16 -21 21 -21
13z"/>
<path d="M3435 1419 c13 -29 23 -55 21 -57 -9 -8 -67 30 -100 65 -25 27 -36
33 -36 21 0 -9 23 -37 51 -62 84 -75 136 -55 87 33 -37 64 -53 64 -23 0z"/>
<path d="M945 1450 c-4 -6 -11 -8 -16 -5 -5 4 -9 -1 -9 -10 0 -11 5 -15 14
-12 7 3 19 0 25 -6 9 -9 14 -9 20 2 5 8 14 10 21 6 8 -5 11 -3 8 6 -3 8 -11
14 -19 14 -8 0 -19 4 -26 8 -6 4 -14 3 -18 -3z m25 -21 c0 -6 -4 -7 -10 -4 -5
3 -10 11 -10 16 0 6 5 7 10 4 6 -3 10 -11 10 -16z"/>
<path d="M1324 1442 c3 -6 0 -12 -6 -15 -7 -3 -3 -4 10 -4 23 1 25 18 2 25 -7
3 -10 0 -6 -6z"/>
<path d="M2888 1443 c7 -3 16 -2 19 1 4 3 -2 6 -13 5 -11 0 -14 -3 -6 -6z"/>
<path d="M1226 1425 c4 -8 7 -15 9 -15 2 0 5 7 9 15 3 9 0 15 -9 15 -9 0 -12
-6 -9 -15z"/>
<path d="M1265 1430 c3 -5 8 -10 11 -10 2 0 4 5 4 10 0 6 -5 10 -11 10 -5 0
-7 -4 -4 -10z"/>
<path d="M1452 1429 c2 -6 8 -10 13 -10 5 0 11 4 13 10 2 6 -4 11 -13 11 -9 0
-15 -5 -13 -11z"/>
<path d="M2845 1430 c-3 -5 -1 -10 4 -10 6 0 11 5 11 10 0 6 -2 10 -4 10 -3 0
-8 -4 -11 -10z"/>
<path d="M3600 1427 c0 -10 8 -26 18 -36 23 -25 80 -53 92 -46 15 9 12 49 -5
71 -15 18 -16 17 -10 -13 4 -19 2 -33 -3 -33 -11 0 -62 38 -79 60 -11 13 -12
13 -13 -3z"/>
<path d="M2808 1423 c7 -3 16 -2 19 1 4 3 -2 6 -13 5 -11 0 -14 -3 -6 -6z"/>
<path d="M1499 1380 c-4 -19 -2 -40 3 -47 6 -7 5 -14 -2 -18 -5 -3 -10 -11
-10 -18 0 -6 10 -1 23 11 15 16 18 25 10 30 -6 4 -13 23 -15 42 l-3 35 -6 -35z"/>
<path d="M1220 1389 c0 -5 5 -7 10 -4 6 3 10 8 10 11 0 2 -4 4 -10 4 -5 0 -10
-5 -10 -11z"/>
<path d="M1280 1390 c0 -5 4 -10 9 -10 6 0 13 5 16 10 3 6 -1 10 -9 10 -9 0
-16 -4 -16 -10z"/>
<path d="M1199 1367 c6 -8 8 -17 4 -20 -3 -4 -2 -7 4 -7 18 0 22 12 8 26 -18
18 -31 18 -16 1z"/>
<path d="M1445 1369 c-11 -17 0 -20 21 -4 17 13 17 14 2 15 -9 0 -20 -5 -23
-11z"/>
<path d="M1827 1313 c-5 -26 -4 -26 9 -8 16 22 18 35 5 35 -5 0 -11 -12 -14
-27z"/>
<path d="M2074 1319 c-3 -6 -1 -14 5 -18 6 -4 9 -15 5 -24 -3 -9 -11 -14 -17
-10 -6 3 -7 1 -3 -5 4 -6 13 -9 21 -5 15 5 18 11 18 38 0 28 -3 35 -12 35 -6
0 -13 -5 -17 -11z"/>
<path d="M2549 1302 c-3 -20 -2 -29 4 -23 5 5 7 19 5 32 -3 20 -5 19 -9 -9z"/>
<path d="M1465 1295 c0 -13 3 -21 8 -18 4 2 7 10 7 18 0 8 -3 16 -7 18 -5 3
-8 -5 -8 -18z"/>
<path d="M2490 1296 c0 -2 8 -10 18 -17 15 -13 16 -12 3 4 -13 16 -21 21 -21
13z"/>
<path d="M1865 1280 c-3 -5 1 -10 10 -10 9 0 13 5 10 10 -3 6 -8 10 -10 10 -2
0 -7 -4 -10 -10z"/>
<path d="M1654 1262 c4 -3 14 -7 22 -8 9 -1 13 0 10 4 -4 3 -14 7 -22 8 -9 1
-13 0 -10 -4z"/>
<path d="M2840 1221 c13 -25 13 -71 0 -71 -16 0 -60 23 -60 32 0 4 -6 8 -12 8
-18 0 33 -47 59 -54 33 -10 48 24 29 69 -8 19 -18 35 -21 35 -3 0 -1 -9 5 -19z"/>
<path d="M3688 1193 c7 -3 16 -2 19 1 4 3 -2 6 -13 5 -11 0 -14 -3 -6 -6z"/>
<path d="M3234 1148 c28 -39 32 -53 16 -63 -11 -7 -51 12 -62 29 -4 6 -10 7
-14 4 -8 -9 56 -48 79 -48 28 0 21 46 -14 82 l-32 33 27 -37z"/>
<path d="M2610 1100 c39 -68 17 -79 -58 -29 l-47 30 40 -36 c68 -62 131 -26
70 41 l-26 29 21 -35z"/>
<path d="M2984 998 c30 -50 11 -82 -33 -58 -12 6 -21 7 -21 1 0 -12 56 -25 70
-16 17 10 11 51 -11 76 l-21 24 16 -27z"/>
<path d="M3953 897 c-3 -5 -2 -11 1 -14 3 -3 1 -12 -5 -20 -21 -24 9 -14 36
12 14 14 25 27 25 28 0 6 -53 1 -57 -6z"/>
<path d="M4083 841 c0 -11 5 -18 9 -15 4 3 5 11 1 19 -7 21 -12 19 -10 -4z"/>
<path d="M4010 819 c0 -5 -4 -7 -10 -4 -5 3 -7 0 -5 -7 7 -18 45 -41 45 -28 0
5 -5 10 -11 10 -6 0 -9 9 -6 20 3 11 1 20 -4 20 -5 0 -9 -5 -9 -11z"/>
<path d="M4115 800 c-3 -5 -2 -10 4 -10 5 0 13 5 16 10 3 6 2 10 -4 10 -5 0
-13 -4 -16 -10z"/>
<path d="M4100 762 c0 -5 7 -9 15 -9 8 0 12 4 9 9 -3 4 -9 8 -15 8 -5 0 -9 -4
-9 -8z"/>
<path d="M4190 740 c0 -5 5 -10 11 -10 5 0 7 5 4 10 -3 6 -8 10 -11 10 -2 0
-4 -4 -4 -10z"/>
<path d="M4265 650 c3 -5 8 -10 11 -10 2 0 4 5 4 10 0 6 -5 10 -11 10 -5 0 -7
-4 -4 -10z"/>
<path d="M4410 581 c0 -6 4 -13 10 -16 6 -3 7 1 4 9 -7 18 -14 21 -14 7z"/>
</g>
</svg>
